<svg xmlns="http://www.w3.org/2000/svg" xmlns:xlink="http://www.w3.org/1999/xlink" contentStyleType="text/css" data-diagram-type="ACTIVITY" height="314px" preserveAspectRatio="none" style="width:472px;height:314px;background:#FFFFFF;" version="1.1" viewBox="0 0 472 314" width="472px" zoomAndPan="magnify"><defs><filter height="300%" id="f1o1zphiigmr0w" width="300%" x="-1" y="-1"><feGaussianBlur result="blurOut" stdDeviation="2"/><feColorMatrix in="blurOut" result="blurOut2" type="matrix" values="0 0 0 0 0 0 0 0 0 0 0 0 0 0 0 0 0 0 .4 0"/><feOffset dx="4" dy="4" in="blurOut2" result="blurOut3"/><feBlend in="SourceGraphic" in2="blurOut3" mode="normal"/></filter></defs><g><ellipse cx="257.3018" cy="20" fill="#000000" filter="url(#f1o1zphiigmr0w)" rx="10" ry="10" style="stroke:#000000;stroke-width:1;"/><rect fill="#FEFECE" filter="url(#f1o1zphiigmr0w)" height="33.9688" rx="12.5" ry="12.5" style="stroke:#A80036;stroke-width:1.5;" width="170.5156" x="172.0439" y="50"/><text fill="#000000" font-family="sans-serif" font-size="12" lengthAdjust="spacing" textLength="150.5156" x="182.0439" y="71.1387">Validate request payload</text><polygon fill="#FEFECE" filter="url(#f1o1zphiigmr0w)" points="217.7651,103.9688,296.8384,103.9688,308.8384,115.9688,296.8384,127.9688,217.7651,127.9688,205.7651,115.9688,217.7651,103.9688" style="stroke:#A80036;stroke-width:1.5;"/><text fill="#000000" font-family="sans-serif" font-size="11" lengthAdjust="spacing" textLength="79.0732" x="217.7651" y="119.7769">Payload valid?</text><text fill="#000000" font-family="sans-serif" font-size="11" lengthAdjust="spacing" textLength="19.0083" x="186.7568" y="113.3745">yes</text><text fill="#000000" font-family="sans-serif" font-size="11" lengthAdjust="spacing" textLength="13.7017" x="308.8384" y="113.3745">no</text><rect fill="#FEFECE" filter="url(#f1o1zphiigmr0w)" height="33.9688" rx="12.5" ry="12.5" style="stroke:#A80036;stroke-width:1.5;" width="185.0703" x="48.7344" y="137.9688"/><text fill="#000000" font-family="sans-serif" font-size="12" lengthAdjust="spacing" textLength="118.7988" x="58.7344" y="159.1074">Create record in DB</text><text fill="#000000" font-family="sans-serif" font-size="12" font-weight="bold" lengthAdjust="spacing" textLength="42.457" x="181.3477" y="159.1074">appdb</text><rect fill="#FEFECE" filter="url(#f1o1zphiigmr0w)" height="33.9688" rx="12.5" ry="12.5" style="stroke:#A80036;stroke-width:1.5;" width="260.5391" x="11" y="191.9375"/><text fill="#000000" font-family="sans-serif" font-size="12" lengthAdjust="spacing" textLength="240.5391" x="21" y="213.0762">Return 201 Created with created record</text><rect fill="#FEFECE" filter="url(#f1o1zphiigmr0w)" height="33.9688" rx="12.5" ry="12.5" style="stroke:#A80036;stroke-width:1.5;" width="163.5898" x="291.5391" y="137.9688"/><text fill="#000000" font-family="sans-serif" font-size="12" lengthAdjust="spacing" textLength="143.5898" x="301.5391" y="159.1074">Return 400 BadRequest</text><polygon fill="#FEFECE" filter="url(#f1o1zphiigmr0w)" points="257.3018,231.9063,269.3018,243.9063,257.3018,255.9063,245.3018,243.9063,257.3018,231.9063" style="stroke:#A80036;stroke-width:1.5;"/><ellipse cx="257.3018" cy="286.9063" fill="none" filter="url(#f1o1zphiigmr0w)" rx="11" ry="11" style="stroke:#000000;stroke-width:1;"/><ellipse cx="257.3018" cy="286.9063" fill="#000000" rx="6" ry="6" style="stroke:#000000;stroke-width:1;"/><line style="stroke:#A80036;stroke-width:1.5;" x1="257.3018" x2="257.3018" y1="30" y2="50"/><polygon fill="#A80036" points="253.3018,40,257.3018,50,261.3018,40,257.3018,44" style="stroke:#A80036;stroke-width:1;"/><line style="stroke:#A80036;stroke-width:1.5;" x1="141.2695" x2="141.2695" y1="171.9375" y2="191.9375"/><polygon fill="#A80036" points="137.2695,181.9375,141.2695,191.9375,145.2695,181.9375,141.2695,185.9375" style="stroke:#A80036;stroke-width:1;"/><line style="stroke:#A80036;stroke-width:1.5;" x1="205.7651" x2="141.2695" y1="115.9688" y2="115.9688"/><line style="stroke:#A80036;stroke-width:1.5;" x1="141.2695" x2="141.2695" y1="115.9688" y2="137.9688"/><polygon fill="#A80036" points="137.2695,127.9688,141.2695,137.9688,145.2695,127.9688,141.2695,131.9688" style="stroke:#A80036;stroke-width:1;"/><line style="stroke:#A80036;stroke-width:1.5;" x1="308.8384" x2="373.334" y1="115.9688" y2="115.9688"/><line style="stroke:#A80036;stroke-width:1.5;" x1="373.334" x2="373.334" y1="115.9688" y2="137.9688"/><polygon fill="#A80036" points="369.334,127.9688,373.334,137.9688,377.334,127.9688,373.334,131.9688" style="stroke:#A80036;stroke-width:1;"/><line style="stroke:#A80036;stroke-width:1.5;" x1="141.2695" x2="141.2695" y1="225.9063" y2="243.9063"/><line style="stroke:#A80036;stroke-width:1.5;" x1="141.2695" x2="245.3018" y1="243.9063" y2="243.9063"/><polygon fill="#A80036" points="235.3018,239.9063,245.3018,243.9063,235.3018,247.9063,239.3018,243.9063" style="stroke:#A80036;stroke-width:1;"/><line style="stroke:#A80036;stroke-width:1.5;" x1="373.334" x2="373.334" y1="171.9375" y2="243.9063"/><line style="stroke:#A80036;stroke-width:1.5;" x1="373.334" x2="269.3018" y1="243.9063" y2="243.9063"/><polygon fill="#A80036" points="279.3018,239.9063,269.3018,243.9063,279.3018,247.9063,275.3018,243.9063" style="stroke:#A80036;stroke-width:1;"/><line style="stroke:#A80036;stroke-width:1.5;" x1="257.3018" x2="257.3018" y1="83.9688" y2="103.9688"/><polygon fill="#A80036" points="253.3018,93.9688,257.3018,103.9688,261.3018,93.9688,257.3018,97.9688" style="stroke:#A80036;stroke-width:1;"/><line style="stroke:#A80036;stroke-width:1.5;" x1="257.3018" x2="257.3018" y1="255.9063" y2="275.9063"/><polygon fill="#A80036" points="253.3018,265.9063,257.3018,275.9063,261.3018,265.9063,257.3018,269.9063" style="stroke:#A80036;stroke-width:1;"/><!--SRC=[FOwn3e8m54NtViKTOHAD4n1Cm0ym3EuFtYCqahQsHSFVYwbnFCavDpSyj86tGLI8vACgxxHefYZmybmbH3ZQ5ajSAJqXkoN0wsjTSiHP3B9DGgxApalgHkiP- -orHJqqv1mFzM5eAbNs4bTlS2gEI3RZhUECyGUfhPGiGP0Pc_-JSr6W9UxJgTqmhAVzitKV]--></g></svg>
