<svg xmlns="http://www.w3.org/2000/svg" xmlns:xlink="http://www.w3.org/1999/xlink" contentStyleType="text/css" data-diagram-type="ACTIVITY" height="260px" preserveAspectRatio="none" style="width:471px;height:260px;background:#FFFFFF;" version="1.1" viewBox="0 0 471 260" width="471px" zoomAndPan="magnify"><defs><filter height="300%" id="fdx36i5itohgt" width="300%" x="-1" y="-1"><feGaussianBlur result="blurOut" stdDeviation="2"/><feColorMatrix in="blurOut" result="blurOut2" type="matrix" values="0 0 0 0 0 0 0 0 0 0 0 0 0 0 0 0 0 0 .4 0"/><feOffset dx="4" dy="4" in="blurOut2" result="blurOut3"/><feBlend in="SourceGraphic" in2="blurOut3" mode="normal"/></filter></defs><g><ellipse cx="234.6201" cy="20" fill="#000000" filter="url(#fdx36i5itohgt)" rx="10" ry="10" style="stroke:#000000;stroke-width:1;"/><rect fill="#FEFECE" filter="url(#fdx36i5itohgt)" height="33.9688" rx="12.5" ry="12.5" style="stroke:#A80036;stroke-width:1.5;" width="223.0684" x="123.0859" y="50"/><text fill="#000000" font-family="sans-serif" font-size="12" lengthAdjust="spacing" textLength="156.7969" x="133.0859" y="71.1387">Fetch records list from DB</text><text fill="#000000" font-family="sans-serif" font-size="12" font-weight="bold" lengthAdjust="spacing" textLength="42.457" x="293.6973" y="71.1387">appdb</text><polygon fill="#FEFECE" filter="url(#fdx36i5itohgt)" points="202.6943,103.9688,266.5459,103.9688,278.5459,115.9688,266.5459,127.9688,202.6943,127.9688,190.6943,115.9688,202.6943,103.9688" style="stroke:#A80036;stroke-width:1.5;"/><text fill="#000000" font-family="sans-serif" font-size="11" lengthAdjust="spacing" textLength="63.8516" x="202.6943" y="119.7769">List empty?</text><text fill="#000000" font-family="sans-serif" font-size="11" lengthAdjust="spacing" textLength="19.0083" x="171.686" y="113.3745">yes</text><text fill="#000000" font-family="sans-serif" font-size="11" lengthAdjust="spacing" textLength="13.7017" x="278.5459" y="113.3745">no</text><rect fill="#FEFECE" filter="url(#fdx36i5itohgt)" height="33.9688" rx="12.5" ry="12.5" style="stroke:#A80036;stroke-width:1.5;" width="215.4922" x="11" y="137.9688"/><text fill="#000000" font-family="sans-serif" font-size="12" lengthAdjust="spacing" textLength="195.4922" x="21" y="159.1074">Return 200 OK with empty array</text><rect fill="#FEFECE" filter="url(#fdx36i5itohgt)" height="33.9688" rx="12.5" ry="12.5" style="stroke:#A80036;stroke-width:1.5;" width="208.0039" x="246.4922" y="137.9688"/><text fill="#000000" font-family="sans-serif" font-size="12" lengthAdjust="spacing" textLength="188.0039" x="256.4922" y="159.1074">Return 200 OK with records list</text><polygon fill="#FEFECE" filter="url(#fdx36i5itohgt)" points="234.6201,177.9375,246.6201,189.9375,234.6201,201.9375,222.6201,189.9375,234.6201,177.9375" style="stroke:#A80036;stroke-width:1.5;"/><ellipse cx="234.6201" cy="232.9375" fill="none" filter="url(#fdx36i5itohgt)" rx="11" ry="11" style="stroke:#000000;stroke-width:1;"/><ellipse cx="234.6201" cy="232.9375" fill="#000000" rx="6" ry="6" style="stroke:#000000;stroke-width:1;"/><line style="stroke:#A80036;stroke-width:1.5;" x1="234.6201" x2="234.6201" y1="30" y2="50"/><polygon fill="#A80036" points="230.6201,40,234.6201,50,238.6201,40,234.6201,44" style="stroke:#A80036;stroke-width:1;"/><line style="stroke:#A80036;stroke-width:1.5;" x1="190.6943" x2="118.7461" y1="115.9688" y2="115.9688"/><line style="stroke:#A80036;stroke-width:1.5;" x1="118.7461" x2="118.7461" y1="115.9688" y2="137.9688"/><polygon fill="#A80036" points="114.7461,127.9688,118.7461,137.9688,122.7461,127.9688,118.7461,131.9688" style="stroke:#A80036;stroke-width:1;"/><line style="stroke:#A80036;stroke-width:1.5;" x1="278.5459" x2="350.4941" y1="115.9688" y2="115.9688"/><line style="stroke:#A80036;stroke-width:1.5;" x1="350.4941" x2="350.4941" y1="115.9688" y2="137.9688"/><polygon fill="#A80036" points="346.4941,127.9688,350.4941,137.9688,354.4941,127.9688,350.4941,131.9688" style="stroke:#A80036;stroke-width:1;"/><line style="stroke:#A80036;stroke-width:1.5;" x1="118.7461" x2="118.7461" y1="171.9375" y2="189.9375"/><line style="stroke:#A80036;stroke-width:1.5;" x1="118.7461" x2="222.6201" y1="189.9375" y2="189.9375"/><polygon fill="#A80036" points="212.6201,185.9375,222.6201,189.9375,212.6201,193.9375,216.6201,189.9375" style="stroke:#A80036;stroke-width:1;"/><line style="stroke:#A80036;stroke-width:1.5;" x1="350.4941" x2="350.4941" y1="171.9375" y2="189.9375"/><line style="stroke:#A80036;stroke-width:1.5;" x1="350.4941" x2="246.6201" y1="189.9375" y2="189.9375"/><polygon fill="#A80036" points="256.6201,185.9375,246.6201,189.9375,256.6201,193.9375,252.6201,189.9375" style="stroke:#A80036;stroke-width:1;"/><line style="stroke:#A80036;stroke-width:1.5;" x1="234.6201" x2="234.6201" y1="83.9688" y2="103.9688"/><polygon fill="#A80036" points="230.6201,93.9688,234.6201,103.9688,238.6201,93.9688,234.6201,97.9688" style="stroke:#A80036;stroke-width:1;"/><line style="stroke:#A80036;stroke-width:1.5;" x1="234.6201" x2="234.6201" y1="201.9375" y2="221.9375"/><polygon fill="#A80036" points="230.6201,211.9375,234.6201,221.9375,238.6201,211.9375,234.6201,215.9375" style="stroke:#A80036;stroke-width:1;"/><!--SRC=[RSwn2i8m58NXFKznndQoEBQbWeYBWk0RfCqD3RP9kFUAvEsjk3Wudm_EBuyGmKd8Y5fMqvv9fnbCKs8dM88eFASLfoFwSR0vkx7VZKDdWaTr_SoqPYs76ZfJH5L8QjFUIPySiMyQt2vu1Ps_39RPbixG8eGgfl_qztspqGM_vQNy1W00]--></g></svg>
