<svg xmlns="http://www.w3.org/2000/svg" xmlns:xlink="http://www.w3.org/1999/xlink" contentStyleType="text/css" data-diagram-type="ACTIVITY" height="140px" preserveAspectRatio="none" style="width:300px;height:140px;background:#FFFFFF;" version="1.1" viewBox="0 0 300 140" width="300px" zoomAndPan="magnify"><defs><filter height="300%" id="fdx36i5itohgt" width="300%" x="-1" y="-1"><feGaussianBlur result="blurOut" stdDeviation="2"/><feColorMatrix in="blurOut" result="blurOut2" type="matrix" values="0 0 0 0 0 0 0 0 0 0 0 0 0 0 0 0 0 0 .4 0"/><feOffset dx="4" dy="4" in="blurOut2" result="blurOut3"/><feBlend in="SourceGraphic" in2="blurOut3" mode="normal"/></filter></defs><g><ellipse cx="150" cy="20" fill="#000000" filter="url(#fdx36i5itohgt)" rx="10" ry="10" style="stroke:#000000;stroke-width:1;"/><rect fill="#FEFECE" filter="url(#fdx36i5itohgt)" height="33.9688" rx="12.5" ry="12.5" style="stroke:#A80036;stroke-width:1.5;" width="200" x="50" y="50"/><text fill="#000000" font-family="sans-serif" font-size="12" lengthAdjust="spacing" textLength="160" x="70" y="71.1387">Return 200 OK with status</text><polygon fill="#FEFECE" filter="url(#fdx36i5itohgt)" points="150,103.9688,162,115.9688,150,127.9688,138,115.9688,150,103.9688" style="stroke:#A80036;stroke-width:1.5;"/><ellipse cx="150" cy="130" fill="none" filter="url(#fdx36i5itohgt)" rx="11" ry="11" style="stroke:#000000;stroke-width:1;"/><ellipse cx="150" cy="130" fill="#000000" rx="6" ry="6" style="stroke:#000000;stroke-width:1;"/><line style="stroke:#A80036;stroke-width:1.5;" x1="150" x2="150" y1="30" y2="50"/><polygon fill="#A80036" points="146,40,150,50,154,40,150,44" style="stroke:#A80036;stroke-width:1;"/><line style="stroke:#A80036;stroke-width:1.5;" x1="150" x2="150" y1="83.9688" y2="103.9688"/><polygon fill="#A80036" points="146,93.9688,150,103.9688,154,93.9688,150,97.9688" style="stroke:#A80036;stroke-width:1;"/><line style="stroke:#A80036;stroke-width:1.5;" x1="150" x2="150" y1="127.9688" y2="120"/><polygon fill="#A80036" points="154,127.9688,150,130,146,127.9688,150,126" style="stroke:#A80036;stroke-width:1;"/></g></svg>
