<svg xmlns="http://www.w3.org/2000/svg" xmlns:xlink="http://www.w3.org/1999/xlink" contentStyleType="text/css" data-diagram-type="ACTIVITY" height="260px" preserveAspectRatio="none" style="width:377px;height:260px;background:#FFFFFF;" version="1.1" viewBox="0 0 377 260" width="377px" zoomAndPan="magnify"><defs><filter height="300%" id="fth07jkpn1i1d" width="300%" x="-1" y="-1"><feGaussianBlur result="blurOut" stdDeviation="2"/><feColorMatrix in="blurOut" result="blurOut2" type="matrix" values="0 0 0 0 0 0 0 0 0 0 0 0 0 0 0 0 0 0 .4 0"/><feOffset dx="4" dy="4" in="blurOut2" result="blurOut3"/><feBlend in="SourceGraphic" in2="blurOut3" mode="normal"/></filter></defs><g><ellipse cx="193.5342" cy="20" fill="#000000" filter="url(#fth07jkpn1i1d)" rx="10" ry="10" style="stroke:#000000;stroke-width:1;"/><rect fill="#FEFECE" filter="url(#fth07jkpn1i1d)" height="33.9688" rx="12.5" ry="12.5" style="stroke:#A80036;stroke-width:1.5;" width="230.4277" x="78.3203" y="50"/><text fill="#000000" font-family="sans-serif" font-size="12" lengthAdjust="spacing" textLength="129.1055" x="88.3203" y="71.1387">Fetch record from DB</text><text fill="#000000" font-family="sans-serif" font-size="12" font-weight="bold" lengthAdjust="spacing" textLength="42.457" x="221.2402" y="71.1387">appdb</text><text fill="#000000" font-family="sans-serif" font-size="12" lengthAdjust="spacing" textLength="14.7188" x="267.5117" y="71.1387">by</text><text fill="#000000" font-family="sans-serif" font-size="12" font-weight="bold" lengthAdjust="spacing" textLength="12.7031" x="286.0449" y="71.1387">id</text><polygon fill="#FEFECE" filter="url(#fth07jkpn1i1d)" points="153.7559,103.9688,233.3125,103.9688,245.3125,115.9688,233.3125,127.9688,153.7559,127.9688,141.7559,115.9688,153.7559,103.9688" style="stroke:#A80036;stroke-width:1.5;"/><text fill="#000000" font-family="sans-serif" font-size="11" lengthAdjust="spacing" textLength="79.5566" x="153.7559" y="119.7769">Record found?</text><text fill="#000000" font-family="sans-serif" font-size="11" lengthAdjust="spacing" textLength="19.0083" x="122.7476" y="113.3745">yes</text><text fill="#000000" font-family="sans-serif" font-size="11" lengthAdjust="spacing" textLength="13.7017" x="245.3125" y="113.3745">no</text><rect fill="#FEFECE" filter="url(#fth07jkpn1i1d)" height="33.9688" rx="12.5" ry="12.5" style="stroke:#A80036;stroke-width:1.5;" width="180.3125" x="11" y="137.9688"/><text fill="#000000" font-family="sans-serif" font-size="12" lengthAdjust="spacing" textLength="160.3125" x="21" y="159.1074">Return 200 OK with record</text><rect fill="#FEFECE" filter="url(#fth07jkpn1i1d)" height="33.9688" rx="12.5" ry="12.5" style="stroke:#A80036;stroke-width:1.5;" width="149.1992" x="211.3125" y="137.9688"/><text fill="#000000" font-family="sans-serif" font-size="12" lengthAdjust="spacing" textLength="129.1992" x="221.3125" y="159.1074">Return 404 NotFound</text><polygon fill="#FEFECE" filter="url(#fth07jkpn1i1d)" points="193.5342,177.9375,205.5342,189.9375,193.5342,201.9375,181.5342,189.9375,193.5342,177.9375" style="stroke:#A80036;stroke-width:1.5;"/><ellipse cx="193.5342" cy="232.9375" fill="none" filter="url(#fth07jkpn1i1d)" rx="11" ry="11" style="stroke:#000000;stroke-width:1;"/><ellipse cx="193.5342" cy="232.9375" fill="#000000" rx="6" ry="6" style="stroke:#000000;stroke-width:1;"/><line style="stroke:#A80036;stroke-width:1.5;" x1="193.5342" x2="193.5342" y1="30" y2="50"/><polygon fill="#A80036" points="189.5342,40,193.5342,50,197.5342,40,193.5342,44" style="stroke:#A80036;stroke-width:1;"/><line style="stroke:#A80036;stroke-width:1.5;" x1="141.7559" x2="101.1563" y1="115.9688" y2="115.9688"/><line style="stroke:#A80036;stroke-width:1.5;" x1="101.1563" x2="101.1563" y1="115.9688" y2="137.9688"/><polygon fill="#A80036" points="97.1563,127.9688,101.1563,137.9688,105.1563,127.9688,101.1563,131.9688" style="stroke:#A80036;stroke-width:1;"/><line style="stroke:#A80036;stroke-width:1.5;" x1="245.3125" x2="285.9121" y1="115.9688" y2="115.9688"/><line style="stroke:#A80036;stroke-width:1.5;" x1="285.9121" x2="285.9121" y1="115.9688" y2="137.9688"/><polygon fill="#A80036" points="281.9121,127.9688,285.9121,137.9688,289.9121,127.9688,285.9121,131.9688" style="stroke:#A80036;stroke-width:1;"/><line style="stroke:#A80036;stroke-width:1.5;" x1="101.1563" x2="101.1563" y1="171.9375" y2="189.9375"/><line style="stroke:#A80036;stroke-width:1.5;" x1="101.1563" x2="181.5342" y1="189.9375" y2="189.9375"/><polygon fill="#A80036" points="171.5342,185.9375,181.5342,189.9375,171.5342,193.9375,175.5342,189.9375" style="stroke:#A80036;stroke-width:1;"/><line style="stroke:#A80036;stroke-width:1.5;" x1="285.9121" x2="285.9121" y1="171.9375" y2="189.9375"/><line style="stroke:#A80036;stroke-width:1.5;" x1="285.9121" x2="205.5342" y1="189.9375" y2="189.9375"/><polygon fill="#A80036" points="215.5342,185.9375,205.5342,189.9375,215.5342,193.9375,211.5342,189.9375" style="stroke:#A80036;stroke-width:1;"/><line style="stroke:#A80036;stroke-width:1.5;" x1="193.5342" x2="193.5342" y1="83.9688" y2="103.9688"/><polygon fill="#A80036" points="189.5342,93.9688,193.5342,103.9688,197.5342,93.9688,193.5342,97.9688" style="stroke:#A80036;stroke-width:1;"/><line style="stroke:#A80036;stroke-width:1.5;" x1="193.5342" x2="193.5342" y1="201.9375" y2="221.9375"/><polygon fill="#A80036" points="189.5342,211.9375,193.5342,221.9375,197.5342,211.9375,193.5342,215.9375" style="stroke:#A80036;stroke-width:1;"/><!--SRC=[HOv12eCm54JtESKiTLKfhbGibEAcq88tCEO7Gzlya7mfthu6MhfypECnwU4y8YTIIQOegXb8vWMHPeu6Dl8BbpCwtKyX6DqTT0-zPNOcGwkSHJ5-RLwzEPMGXJoAZLAfcf5aZHx7giBzYhUJNxjLz4o4mlFVggiQDvOXT_RT6sVtMnm-]--></g></svg>
