<svg xmlns="http://www.w3.org/2000/svg" xmlns:xlink="http://www.w3.org/1999/xlink" contentStyleType="text/css" data-diagram-type="ACTIVITY" height="314px" preserveAspectRatio="none" style="width:385px;height:314px;background:#FFFFFF;" version="1.1" viewBox="0 0 385 314" width="385px" zoomAndPan="magnify"><defs><filter height="300%" id="f1eqg71jr9kksg" width="300%" x="-1" y="-1"><feGaussianBlur result="blurOut" stdDeviation="2"/><feColorMatrix in="blurOut" result="blurOut2" type="matrix" values="0 0 0 0 0 0 0 0 0 0 0 0 0 0 0 0 0 0 .4 0"/><feOffset dx="4" dy="4" in="blurOut2" result="blurOut3"/><feBlend in="SourceGraphic" in2="blurOut3" mode="normal"/></filter></defs><g><ellipse cx="199.5942" cy="20" fill="#000000" filter="url(#f1eqg71jr9kksg)" rx="10" ry="10" style="stroke:#000000;stroke-width:1;"/><rect fill="#FEFECE" filter="url(#f1eqg71jr9kksg)" height="33.9688" rx="12.5" ry="12.5" style="stroke:#A80036;stroke-width:1.5;" width="230.4277" x="84.3804" y="50"/><text fill="#000000" font-family="sans-serif" font-size="12" lengthAdjust="spacing" textLength="129.1055" x="94.3804" y="71.1387">Fetch record from DB</text><text fill="#000000" font-family="sans-serif" font-size="12" font-weight="bold" lengthAdjust="spacing" textLength="42.457" x="227.3003" y="71.1387">appdb</text><text fill="#000000" font-family="sans-serif" font-size="12" lengthAdjust="spacing" textLength="14.7188" x="273.5718" y="71.1387">by</text><text fill="#000000" font-family="sans-serif" font-size="12" font-weight="bold" lengthAdjust="spacing" textLength="12.7031" x="292.105" y="71.1387">id</text><polygon fill="#FEFECE" filter="url(#f1eqg71jr9kksg)" points="159.8159,103.9688,239.3726,103.9688,251.3726,115.9688,239.3726,127.9688,159.8159,127.9688,147.8159,115.9688,159.8159,103.9688" style="stroke:#A80036;stroke-width:1.5;"/><text fill="#000000" font-family="sans-serif" font-size="11" lengthAdjust="spacing" textLength="79.5566" x="159.8159" y="119.7769">Record found?</text><text fill="#000000" font-family="sans-serif" font-size="11" lengthAdjust="spacing" textLength="19.0083" x="128.8076" y="113.3745">yes</text><text fill="#000000" font-family="sans-serif" font-size="11" lengthAdjust="spacing" textLength="13.7017" x="251.3726" y="113.3745">no</text><rect fill="#FEFECE" filter="url(#f1eqg71jr9kksg)" height="33.9688" rx="12.5" ry="12.5" style="stroke:#A80036;stroke-width:1.5;" width="188.3926" x="11" y="137.9688"/><text fill="#000000" font-family="sans-serif" font-size="12" lengthAdjust="spacing" textLength="122.1211" x="21" y="159.1074">Update record in DB</text><text fill="#000000" font-family="sans-serif" font-size="12" font-weight="bold" lengthAdjust="spacing" textLength="42.457" x="146.9355" y="159.1074">appdb</text><rect fill="#FEFECE" filter="url(#f1eqg71jr9kksg)" height="33.9688" rx="12.5" ry="12.5" style="stroke:#A80036;stroke-width:1.5;" width="155.1465" x="27.623" y="191.9375"/><text fill="#000000" font-family="sans-serif" font-size="12" lengthAdjust="spacing" textLength="135.1465" x="37.623" y="213.0762">Return 204 NoContent</text><rect fill="#FEFECE" filter="url(#f1eqg71jr9kksg)" height="33.9688" rx="12.5" ry="12.5" style="stroke:#A80036;stroke-width:1.5;" width="149.1992" x="219.3926" y="137.9688"/><text fill="#000000" font-family="sans-serif" font-size="12" lengthAdjust="spacing" textLength="129.1992" x="229.3926" y="159.1074">Return 404 NotFound</text><polygon fill="#FEFECE" filter="url(#f1eqg71jr9kksg)" points="199.5942,231.9063,211.5942,243.9063,199.5942,255.9063,187.5942,243.9063,199.5942,231.9063" style="stroke:#A80036;stroke-width:1.5;"/><ellipse cx="199.5942" cy="286.9063" fill="none" filter="url(#f1eqg71jr9kksg)" rx="11" ry="11" style="stroke:#000000;stroke-width:1;"/><ellipse cx="199.5942" cy="286.9063" fill="#000000" rx="6" ry="6" style="stroke:#000000;stroke-width:1;"/><line style="stroke:#A80036;stroke-width:1.5;" x1="199.5942" x2="199.5942" y1="30" y2="50"/><polygon fill="#A80036" points="195.5942,40,199.5942,50,203.5942,40,199.5942,44" style="stroke:#A80036;stroke-width:1;"/><line style="stroke:#A80036;stroke-width:1.5;" x1="105.1963" x2="105.1963" y1="171.9375" y2="191.9375"/><polygon fill="#A80036" points="101.1963,181.9375,105.1963,191.9375,109.1963,181.9375,105.1963,185.9375" style="stroke:#A80036;stroke-width:1;"/><line style="stroke:#A80036;stroke-width:1.5;" x1="147.8159" x2="105.1963" y1="115.9688" y2="115.9688"/><line style="stroke:#A80036;stroke-width:1.5;" x1="105.1963" x2="105.1963" y1="115.9688" y2="137.9688"/><polygon fill="#A80036" points="101.1963,127.9688,105.1963,137.9688,109.1963,127.9688,105.1963,131.9688" style="stroke:#A80036;stroke-width:1;"/><line style="stroke:#A80036;stroke-width:1.5;" x1="251.3726" x2="293.9922" y1="115.9688" y2="115.9688"/><line style="stroke:#A80036;stroke-width:1.5;" x1="293.9922" x2="293.9922" y1="115.9688" y2="137.9688"/><polygon fill="#A80036" points="289.9922,127.9688,293.9922,137.9688,297.9922,127.9688,293.9922,131.9688" style="stroke:#A80036;stroke-width:1;"/><line style="stroke:#A80036;stroke-width:1.5;" x1="105.1963" x2="105.1963" y1="225.9063" y2="243.9063"/><line style="stroke:#A80036;stroke-width:1.5;" x1="105.1963" x2="187.5942" y1="243.9063" y2="243.9063"/><polygon fill="#A80036" points="177.5942,239.9063,187.5942,243.9063,177.5942,247.9063,181.5942,243.9063" style="stroke:#A80036;stroke-width:1;"/><line style="stroke:#A80036;stroke-width:1.5;" x1="293.9922" x2="293.9922" y1="171.9375" y2="243.9063"/><line style="stroke:#A80036;stroke-width:1.5;" x1="293.9922" x2="211.5942" y1="243.9063" y2="243.9063"/><polygon fill="#A80036" points="221.5942,239.9063,211.5942,243.9063,221.5942,247.9063,217.5942,243.9063" style="stroke:#A80036;stroke-width:1;"/><line style="stroke:#A80036;stroke-width:1.5;" x1="199.5942" x2="199.5942" y1="83.9688" y2="103.9688"/><polygon fill="#A80036" points="195.5942,93.9688,199.5942,103.9688,203.5942,93.9688,199.5942,97.9688" style="stroke:#A80036;stroke-width:1;"/><line style="stroke:#A80036;stroke-width:1.5;" x1="199.5942" x2="199.5942" y1="255.9063" y2="275.9063"/><polygon fill="#A80036" points="195.5942,265.9063,199.5942,275.9063,203.5942,265.9063,199.5942,269.9063" style="stroke:#A80036;stroke-width:1;"/><!--SRC=[NOun3i8m40Hxl-9AfmAXL74K940fAIBnW3W-AnPmPzcN8h_7GK11kThHxEPx84YSKMKPawYcHvbcI3XnSk0JF-5oWjPsOupEjZlRWLst7DmMZ0eUzF2XUI5th41c9D0hvaerj-X6mQ-lRFtPZ6e6b2KH7FOrNFdC94XY53uoWYQkVa3z1gJVLafFBlXockCB]--></g></svg>
