<svg xmlns="http://www.w3.org/2000/svg" xmlns:xlink="http://www.w3.org/1999/xlink" contentStyleType="text/css" data-diagram-type="ACTIVITY" height="314px" preserveAspectRatio="none" style="width:398px;height:314px;background:#FFFFFF;" version="1.1" viewBox="0 0 398 314" width="398px" zoomAndPan="magnify"><defs><filter height="300%" id="ffe0hftnhazc7" width="300%" x="-1" y="-1"><feGaussianBlur result="blurOut" stdDeviation="2"/><feColorMatrix in="blurOut" result="blurOut2" type="matrix" values="0 0 0 0 0 0 0 0 0 0 0 0 0 0 0 0 0 0 .4 0"/><feOffset dx="4" dy="4" in="blurOut2" result="blurOut3"/><feBlend in="SourceGraphic" in2="blurOut3" mode="normal"/></filter></defs><g><ellipse cx="209.5083" cy="20" fill="#000000" filter="url(#ffe0hftnhazc7)" rx="10" ry="10" style="stroke:#000000;stroke-width:1;"/><rect fill="#FEFECE" filter="url(#ffe0hftnhazc7)" height="33.9688" rx="12.5" ry="12.5" style="stroke:#A80036;stroke-width:1.5;" width="230.4277" x="94.2944" y="50"/><text fill="#000000" font-family="sans-serif" font-size="12" lengthAdjust="spacing" textLength="129.1055" x="104.2944" y="71.1387">Fetch record from DB</text><text fill="#000000" font-family="sans-serif" font-size="12" font-weight="bold" lengthAdjust="spacing" textLength="42.457" x="237.2144" y="71.1387">appdb</text><text fill="#000000" font-family="sans-serif" font-size="12" lengthAdjust="spacing" textLength="14.7188" x="283.4858" y="71.1387">by</text><text fill="#000000" font-family="sans-serif" font-size="12" font-weight="bold" lengthAdjust="spacing" textLength="12.7031" x="302.019" y="71.1387">id</text><polygon fill="#FEFECE" filter="url(#ffe0hftnhazc7)" points="169.73,103.9688,249.2866,103.9688,261.2866,115.9688,249.2866,127.9688,169.73,127.9688,157.73,115.9688,169.73,103.9688" style="stroke:#A80036;stroke-width:1.5;"/><text fill="#000000" font-family="sans-serif" font-size="11" lengthAdjust="spacing" textLength="79.5566" x="169.73" y="119.7769">Record found?</text><text fill="#000000" font-family="sans-serif" font-size="11" lengthAdjust="spacing" textLength="19.0083" x="138.7217" y="113.3745">yes</text><text fill="#000000" font-family="sans-serif" font-size="11" lengthAdjust="spacing" textLength="13.7017" x="261.2866" y="113.3745">no</text><rect fill="#FEFECE" filter="url(#ffe0hftnhazc7)" height="33.9688" rx="12.5" ry="12.5" style="stroke:#A80036;stroke-width:1.5;" width="201.6113" x="11" y="137.9688"/><text fill="#000000" font-family="sans-serif" font-size="12" lengthAdjust="spacing" textLength="135.3398" x="21" y="159.1074">Delete record from DB</text><text fill="#000000" font-family="sans-serif" font-size="12" font-weight="bold" lengthAdjust="spacing" textLength="42.457" x="160.1543" y="159.1074">appdb</text><rect fill="#FEFECE" filter="url(#ffe0hftnhazc7)" height="33.9688" rx="12.5" ry="12.5" style="stroke:#A80036;stroke-width:1.5;" width="155.1465" x="34.2324" y="191.9375"/><text fill="#000000" font-family="sans-serif" font-size="12" lengthAdjust="spacing" textLength="135.1465" x="44.2324" y="213.0762">Return 204 NoContent</text><rect fill="#FEFECE" filter="url(#ffe0hftnhazc7)" height="33.9688" rx="12.5" ry="12.5" style="stroke:#A80036;stroke-width:1.5;" width="149.1992" x="232.6113" y="137.9688"/><text fill="#000000" font-family="sans-serif" font-size="12" lengthAdjust="spacing" textLength="129.1992" x="242.6113" y="159.1074">Return 404 NotFound</text><polygon fill="#FEFECE" filter="url(#ffe0hftnhazc7)" points="209.5083,231.9063,221.5083,243.9063,209.5083,255.9063,197.5083,243.9063,209.5083,231.9063" style="stroke:#A80036;stroke-width:1.5;"/><ellipse cx="209.5083" cy="286.9063" fill="none" filter="url(#ffe0hftnhazc7)" rx="11" ry="11" style="stroke:#000000;stroke-width:1;"/><ellipse cx="209.5083" cy="286.9063" fill="#000000" rx="6" ry="6" style="stroke:#000000;stroke-width:1;"/><line style="stroke:#A80036;stroke-width:1.5;" x1="209.5083" x2="209.5083" y1="30" y2="50"/><polygon fill="#A80036" points="205.5083,40,209.5083,50,213.5083,40,209.5083,44" style="stroke:#A80036;stroke-width:1;"/><line style="stroke:#A80036;stroke-width:1.5;" x1="111.8057" x2="111.8057" y1="171.9375" y2="191.9375"/><polygon fill="#A80036" points="107.8057,181.9375,111.8057,191.9375,115.8057,181.9375,111.8057,185.9375" style="stroke:#A80036;stroke-width:1;"/><line style="stroke:#A80036;stroke-width:1.5;" x1="157.73" x2="111.8057" y1="115.9688" y2="115.9688"/><line style="stroke:#A80036;stroke-width:1.5;" x1="111.8057" x2="111.8057" y1="115.9688" y2="137.9688"/><polygon fill="#A80036" points="107.8057,127.9688,111.8057,137.9688,115.8057,127.9688,111.8057,131.9688" style="stroke:#A80036;stroke-width:1;"/><line style="stroke:#A80036;stroke-width:1.5;" x1="261.2866" x2="307.2109" y1="115.9688" y2="115.9688"/><line style="stroke:#A80036;stroke-width:1.5;" x1="307.2109" x2="307.2109" y1="115.9688" y2="137.9688"/><polygon fill="#A80036" points="303.2109,127.9688,307.2109,137.9688,311.2109,127.9688,307.2109,131.9688" style="stroke:#A80036;stroke-width:1;"/><line style="stroke:#A80036;stroke-width:1.5;" x1="111.8057" x2="111.8057" y1="225.9063" y2="243.9063"/><line style="stroke:#A80036;stroke-width:1.5;" x1="111.8057" x2="197.5083" y1="243.9063" y2="243.9063"/><polygon fill="#A80036" points="187.5083,239.9063,197.5083,243.9063,187.5083,247.9063,191.5083,243.9063" style="stroke:#A80036;stroke-width:1;"/><line style="stroke:#A80036;stroke-width:1.5;" x1="307.2109" x2="307.2109" y1="171.9375" y2="243.9063"/><line style="stroke:#A80036;stroke-width:1.5;" x1="307.2109" x2="221.5083" y1="243.9063" y2="243.9063"/><polygon fill="#A80036" points="231.5083,239.9063,221.5083,243.9063,231.5083,247.9063,227.5083,243.9063" style="stroke:#A80036;stroke-width:1;"/><line style="stroke:#A80036;stroke-width:1.5;" x1="209.5083" x2="209.5083" y1="83.9688" y2="103.9688"/><polygon fill="#A80036" points="205.5083,93.9688,209.5083,103.9688,213.5083,93.9688,209.5083,97.9688" style="stroke:#A80036;stroke-width:1;"/><line style="stroke:#A80036;stroke-width:1.5;" x1="209.5083" x2="209.5083" y1="255.9063" y2="275.9063"/><polygon fill="#A80036" points="205.5083,265.9063,209.5083,275.9063,213.5083,265.9063,209.5083,269.9063" style="stroke:#A80036;stroke-width:1;"/><!--SRC=[VOwn3eCm34JtV8L7c5fLJ82er2B63lm18Ow8Ikt8CGD_Nr9L7Ji-tTFTfMSW44veaawYfXvGvmK4PnO7NlW5_GrQsqqnEjkUR0TspnnSXiO43yNujNaZTor15oGeTaobgNjSKV5VNsFg4NKJWikvWWVVcHH96uDhGYY8ovzGVGGTyiwHaml-kCtn3G00]--></g></svg>
